<svg xmlns="http://www.w3.org/2000/svg" width="24" height="24" viewBox="0 0 24 24"><title>assets</title><path d="M18,11.578v.844H7.617l3.921,3.928-.594.594L6,12l4.944-4.944.594.594L7.617,11.578Z" fill="#404040"/><path d="M10.944,7.056l.594.594L7.617,11.578H18v.844H7.617l3.921,3.928-.594.594L6,12l4.944-4.944m0-.141-.071.07L5.929,11.929,5.858,12l.071.071,4.944,4.944.071.07.071-.07.594-.595.071-.07-.071-.071L7.858,12.522H18.1V11.478H7.858l3.751-3.757.071-.071-.071-.07-.594-.595-.071-.07Z" fill="#404040"/></svg>