<svg xmlns="http://www.w3.org/2000/svg" width="1920" height="1080" fill="none" viewBox="0 0 1920 1080"><g clip-path="url(#8424330dea0a4ca888d8d9f21edb5cf8-a)"><path fill="url(#8424330dea0a4ca888d8d9f21edb5cf8-b)" d="M0 0h1920v1082.94H0z"/><path fill="url(#8424330dea0a4ca888d8d9f21edb5cf8-c)" d="M0 0h1920v1082.94H0z"/><path fill="url(#8424330dea0a4ca888d8d9f21edb5cf8-d)" d="M0 0h1920v1082.94H0z"/><path fill="url(#8424330dea0a4ca888d8d9f21edb5cf8-e)" d="M0 0h1920v1082.94H0z"/><path fill="url(#8424330dea0a4ca888d8d9f21edb5cf8-f)" d="M0 0h1920v1082.94H0z"/><path fill="url(#8424330dea0a4ca888d8d9f21edb5cf8-g)" d="M0 0h1920v1082.94H0z"/><path fill="url(#8424330dea0a4ca888d8d9f21edb5cf8-h)" d="M0 0h1920v1082.94H0z"/><path fill="url(#8424330dea0a4ca888d8d9f21edb5cf8-i)" d="M0 0h1920v1082.94H0z"/><path fill="url(#8424330dea0a4ca888d8d9f21edb5cf8-j)" d="M0 0h1920v1082.94H0z"/><path fill="url(#8424330dea0a4ca888d8d9f21edb5cf8-k)" d="M196.111 787.35 30.409 577.817l-62.004 51.849C2.185 690.815 83.86 800 123.416 845.078z"/><path fill="url(#8424330dea0a4ca888d8d9f21edb5cf8-l)" d="M196.111 787.35 30.409 577.817l-62.004 51.849C2.185 690.815 83.86 800 123.416 845.078z"/><path fill="url(#8424330dea0a4ca888d8d9f21edb5cf8-m)" d="M211.612 769.176C136.779 702.895 41.456 571.581 3.148 514.209c5.132-11.545 25.301-32.962 34.744-42.227 89.8 117.595 184.232 225.034 220.223 264.054z"/><path fill="url(#8424330dea0a4ca888d8d9f21edb5cf8-n)" d="M211.612 769.176C136.779 702.895 41.456 571.581 3.148 514.209c5.132-11.545 25.301-32.962 34.744-42.227 89.8 117.595 184.232 225.034 220.223 264.054z"/><path fill="url(#8424330dea0a4ca888d8d9f21edb5cf8-o)" d="M161.367 579.955c-15.395-14.966-91.76-106.726-121.871-142.182l44.365-45.434c14.111 17.532 72.339 81.069 93.541 102.093z"/><path fill="url(#8424330dea0a4ca888d8d9f21edb5cf8-p)" d="M161.367 579.955c-15.395-14.966-91.76-106.726-121.871-142.182l44.365-45.434c14.111 17.532 72.339 81.069 93.541 102.093z"/><path fill="url(#8424330dea0a4ca888d8d9f21edb5cf8-q)" d="m399.763 352.249-64.142 52.918c27.795 47.893 129.532 168.196 176.926 222.361l60.936-46.504c-39.341-45.327-132.205-171.403-173.72-228.775"/><path fill="url(#8424330dea0a4ca888d8d9f21edb5cf8-r)" d="m399.763 352.249-64.142 52.918c27.795 47.893 129.532 168.196 176.926 222.361l60.936-46.504c-39.341-45.327-132.205-171.403-173.72-228.775"/><path fill="url(#8424330dea0a4ca888d8d9f21edb5cf8-s)" d="m399.763 352.249-64.142 52.918c27.795 47.893 129.532 168.196 176.926 222.361l60.936-46.504c-39.341-45.327-132.205-171.403-173.72-228.775"/><path fill="url(#8424330dea0a4ca888d8d9f21edb5cf8-t)" d="m399.763 352.249-64.142 52.918c27.795 47.893 129.532 168.196 176.926 222.361l60.936-46.504c-39.341-45.327-132.205-171.403-173.72-228.775"/><path fill="url(#8424330dea0a4ca888d8d9f21edb5cf8-u)" d="m399.763 352.249-64.142 52.918c27.795 47.893 129.532 168.196 176.926 222.361l60.936-46.504c-39.341-45.327-132.205-171.403-173.72-228.775"/><path fill="url(#8424330dea0a4ca888d8d9f21edb5cf8-v)" d="M571.344 560.713c-53.879-54.308-132.204-173.72-164.632-226.637l48.641-45.969c22.236 43.189 125.791 169.087 174.789 226.637z"/><path fill="url(#8424330dea0a4ca888d8d9f21edb5cf8-w)" d="M571.344 560.713c-53.879-54.308-132.204-173.72-164.632-226.637l48.641-45.969c22.236 43.189 125.791 169.087 174.789 226.637z"/><path fill="url(#8424330dea0a4ca888d8d9f21edb5cf8-x)" d="M571.344 560.713c-53.879-54.308-132.204-173.72-164.632-226.637l48.641-45.969c22.236 43.189 125.791 169.087 174.789 226.637z"/><path fill="url(#8424330dea0a4ca888d8d9f21edb5cf8-y)" d="M571.344 560.713c-53.879-54.308-132.204-173.72-164.632-226.637l48.641-45.969c22.236 43.189 125.791 169.087 174.789 226.637z"/><path fill="url(#8424330dea0a4ca888d8d9f21edb5cf8-z)" d="M571.344 560.713c-53.879-54.308-132.204-173.72-164.632-226.637l48.641-45.969c22.236 43.189 125.791 169.087 174.789 226.637z"/><path fill="url(#8424330dea0a4ca888d8d9f21edb5cf8-A)" d="M571.344 560.713c-53.879-54.308-132.204-173.72-164.632-226.637l48.641-45.969c22.236 43.189 125.791 169.087 174.789 226.637z"/><path fill="url(#8424330dea0a4ca888d8d9f21edb5cf8-B)" d="M633.349 488.552c-82.958-95.786-150.735-197.06-174.254-235.724l48.641-35.278c20.098 33.354 126.326 165.345 176.927 227.172z"/><path fill="url(#8424330dea0a4ca888d8d9f21edb5cf8-C)" d="M633.349 488.552c-82.958-95.786-150.735-197.06-174.254-235.724l48.641-35.278c20.098 33.354 126.326 165.345 176.927 227.172z"/><path fill="url(#8424330dea0a4ca888d8d9f21edb5cf8-D)" d="M633.349 488.552c-82.958-95.786-150.735-197.06-174.254-235.724l48.641-35.278c20.098 33.354 126.326 165.345 176.927 227.172z"/><path fill="url(#8424330dea0a4ca888d8d9f21edb5cf8-E)" d="M633.349 488.552c-82.958-95.786-150.735-197.06-174.254-235.724l48.641-35.278c20.098 33.354 126.326 165.345 176.927 227.172z"/><path fill="url(#8424330dea0a4ca888d8d9f21edb5cf8-F)" d="M1160.92 114.521c-1.39-11.439-10.07-87.556-13.9-121.187h645.62l128.9 23.503-.53 173.854c-292.38 41.158-372.43 64.276-452.34 81.782-79.91 17.505-236.1 58.349-253.23 62.939-14.24 3.816-22.85-1.47-25.79-13.63-1.93-8.009-26.99-192.963-28.73-207.261"/><path fill="url(#8424330dea0a4ca888d8d9f21edb5cf8-G)" d="M1160.92 114.521c-1.39-11.439-10.07-87.556-13.9-121.187h645.62l128.9 23.503-.53 173.854c-292.38 41.158-372.43 64.276-452.34 81.782-79.91 17.505-236.1 58.349-253.23 62.939-14.24 3.816-22.85-1.47-25.79-13.63-1.93-8.009-26.99-192.963-28.73-207.261"/><path fill="url(#8424330dea0a4ca888d8d9f21edb5cf8-H)" d="M1149.65-6.666c4.03 35.398 12.08 105.934 13.41 116.911 1.74 14.301 24.54 200.433 26.48 208.45 2.94 12.16 11.55 17.446 25.79 13.63 17.13-4.59 175.57-46.622 255.48-64.128 79.71-17.463 159.56-40.511 450.21-81.482l-.01 3.976c-292.38 41.159-372.43 64.277-452.34 81.782-79.91 17.506-236.1 58.349-253.23 62.939-14.24 3.816-22.85-1.47-25.79-13.63-1.93-8.009-26.99-192.96-28.73-207.261-1.39-11.439-10.07-87.557-13.9-121.187z"/><path fill="url(#8424330dea0a4ca888d8d9f21edb5cf8-I)" d="M1921.01 190.691c-292.38 41.158-372.43 64.277-452.34 81.782-79.91 17.506-236.1 58.349-253.23 62.939-9.3 2.491-16.19 1.103-20.68-3.544 4.47 3.555 10.88 4.441 19.21 2.208 17.13-4.59 173.32-45.434 253.23-62.939s161.43-40.892 453.81-82.05z"/><path fill="url(#8424330dea0a4ca888d8d9f21edb5cf8-J)" d="M1148.09-2.066c4.1 35.547 13.16 110.785 15.19 127.246 2.04 16.459 7.76 64.529 10.7 85.822l-.29-1.357c-2.94-21.29-9.43-67.865-11.47-84.333-2.03-16.466-11.1-91.71-15.19-127.255z"/><path fill="url(#8424330dea0a4ca888d8d9f21edb5cf8-K)" d="M1930.73 186.008c-28.38 3.363-128.2 17.862-275.53 43.451l-14.41 2.512c-75.76 13.253-207.63 44.343-251.73 55.568l-1.3.301c44.1-11.226 176.93-44.186 252.76-57.45l14.4-2.511c147.34-25.59 247.2-40.096 275.62-43.464z"/><circle cx="1263.55" cy="268.864" r="1.336" fill="#FFFDF7"/><circle cx="1371.26" cy="154.477" r="1.336" fill="#FFFDF7"/><circle cx="1345.87" cy="184.143" r="1.336" fill="#FFFDF7"/><circle cx="1377.94" cy="184.143" r="1.336" fill="#FFFDF7"/><circle cx="1424.44" cy="144.588" r="1.336" fill="#FFFDF7"/><circle cx="1462.12" cy="148.864" r="1.336" fill="#FFFDF7"/><circle cx="1591.21" cy="152.873" r="1.336" fill="#FFFDF7"/><circle cx="1602.97" cy="136.036" r="1.336" fill="#FFFDF7"/><circle cx="1691.7" cy="155.546" r="1.336" fill="#FFFDF7"/><circle cx="1706.4" cy="186.281" r="1.336" fill="#FFFDF7"/><circle cx="1637.71" cy="187.617" r="1.336" fill="#FFFDF7"/><circle cx="1762.26" cy="203.92" r="1.336" fill="#FFFDF7"/><circle cx="1856.87" cy="175.857" r="1.336" fill="#FFFDF7"/><circle cx="1588.54" cy="208.998" r="1.336" fill="#FFFDF7"/><circle cx="1584.53" cy="223.43" r="1.336" fill="#FFFDF7"/><circle cx="1571.43" cy="231.18" r="1.336" fill="#FFFDF7"/><circle cx="1902.84" cy="165.434" r="1.336" fill="#FFFDF7"/><circle cx="1433.79" cy="118.396" r="1.336" fill="#FFFDF7"/><circle cx="1201.28" cy="160.757" r="1.336" fill="#FFFDF7"/><circle cx="1234.02" cy="121.069" r="1.336" fill="#FFFDF7"/><circle cx="1268.63" cy="114.922" r="1.336" fill="#FFFDF7"/><circle cx="1238.96" cy="5.88" r="1.336" fill="#FFFDF7"/><ellipse cx="1216.51" cy="219.02" fill="#FFFDF7" rx="1.336" ry="1.069"/><ellipse cx="1290.41" cy="175.056" fill="#FFFDF7" rx="1.336" ry="1.069"/><circle cx="1254.86" cy="277.817" r=".802" fill="#FFFDF7"/><circle cx="1241.1" cy="281.158" r=".802" fill="#fff"/><circle cx="1202.08" cy="268.062" r=".802" fill="#fff"/><circle cx="1221.46" cy="235.857" r=".802" fill="#fff"/><circle cx="1278.25" cy="123.207" r=".802" fill="#FFFDF7"/><circle cx="1206.09" cy="59.332" r=".802" fill="#FFFDF7"/><circle cx="1190.05" cy="51.581" r=".802" fill="#FFFDF7"/><circle cx="1182.84" cy="101.559" r=".802" fill="#FFFDF7"/><circle cx="1292.55" cy="124.811" r=".802" fill="#FFFDF7"/><circle cx="1283.06" cy="161.292" r=".802" fill="#FFFDF7"/><circle cx="1262.75" cy="185.479" r=".802" fill="#FFFDF7"/><circle cx="1314.86" cy="77.505" r=".802" fill="#FFFDF7"/><circle cx="1318.34" cy="105.835" r=".802" fill="#FFFDF7"/><circle cx="1286" cy="96.214" r=".802" fill="#FFFDF7"/><circle cx="1274.51" cy="95.412" r=".802" fill="#FFFDF7"/><circle cx="1417.49" cy="84.722" r=".802" fill="#FFFDF7"/><circle cx="1379.27" cy="273.14" r=".802" fill="#FFFDF7"/><circle cx="1338.92" cy="175.323" r=".802" fill="#FFFDF7"/><circle cx="1328.76" cy="155.011" r=".802" fill="#FFFDF7"/><circle cx="1477.36" cy="99.955" r=".802" fill="#FFFDF7"/><circle cx="1504.62" cy="77.505" r=".802" fill="#FFFDF7"/><circle cx="1526.27" cy="95.412" r=".802" fill="#FFFDF7"/><circle cx="1526.27" cy="118.396" r=".802" fill="#FFFDF7"/><circle cx="1623.82" cy="165.434" r=".802" fill="#FFFDF7"/><circle cx="1735.26" cy="163.831" r=".802" fill="#FFFDF7"/><circle cx="1744.08" cy="159.02" r=".802" fill="#FFFDF7"/><circle cx="1765.73" cy="139.51" r=".802" fill="#FFFDF7"/><circle cx="1749.16" cy="135.501" r=".802" fill="#F3F8FF"/><circle cx="1702.39" cy="51.047" r=".802" fill="#F3F8FF"/><circle cx="1647.6" cy="28.597" r=".802" fill="#F3F8FF"/><circle cx="1595.22" cy="209.532" r=".802" fill="#F3F8FF"/><circle cx="1365.11" cy="36.08" r=".802" fill="#F3F8FF"/><circle cx="1344.26" cy="12.027" r=".802" fill="#F3F8FF"/><circle cx="1424.97" cy="27.795" r=".802" fill="#F3F8FF"/><circle cx="1603.77" cy="10.423" r=".802" fill="#F3F8FF"/><circle cx="1268.63" cy="272.339" r=".802" fill="#F3F8FF"/><circle cx="1603.5" cy="221.292" r=".802" fill="#F3F8FF"/><circle cx="1622.21" cy="20.044" r=".802" fill="#F3F8FF"/><circle cx="1671.66" cy="168.784" r=".802" fill="#F3F8FF"/><circle cx="1777.22" cy="123.207" r=".802" fill="#FFFDF7"/><circle cx="1776.42" cy="114.655" r=".802" fill="#FFFDF7"/><circle cx="1800.48" cy="138.174" r=".802" fill="#FFFDF7"/><circle cx="1811.43" cy="169.586" r=".802" fill="#FFFDF7"/><circle cx="1788.18" cy="177.996" r=".802" fill="#FFFDF7"/><circle cx="1820.52" cy="182.272" r=".802" fill="#FFFDF7"/><circle cx="1890.01" cy="119.198" r=".802" fill="#FFFDF7"/><circle cx="1585.87" cy="62.272" r=".802" fill="#FFFDF7"/><circle cx="1562.08" cy="40.089" r=".802" fill="#FFFDF7"/><circle cx="1195.8" cy="181.737" r=".802" fill="#fff"/><circle cx="1184.44" cy="195.234" r=".802" fill="#fff"/><circle cx="1177.09" cy="191.626" r=".802" fill="#fff"/><path fill="url(#8424330dea0a4ca888d8d9f21edb5cf8-L)" d="m814.552 1084.54-17.64-608.015c351.718-54.654 522.968 39.269 565.658 69.355 14.03 9.888 21.14 13.704 28.86 31.403 20.58 47.171 62.14 151.03 93.54 256.035 28.09 93.917 51.72 189.352 64.55 251.222z"/><path fill="url(#8424330dea0a4ca888d8d9f21edb5cf8-M)" d="m814.552 1084.54-17.64-608.015c351.718-54.654 522.968 39.269 565.658 69.355 14.03 9.888 21.14 13.704 28.86 31.403 20.58 47.171 62.14 151.03 93.54 256.035 28.09 93.917 51.72 189.352 64.55 251.222z"/><path fill="url(#8424330dea0a4ca888d8d9f21edb5cf8-N)" d="m814.552 1084.54-17.64-608.015c351.718-54.654 522.968 39.269 565.658 69.355 14.03 9.888 21.14 13.704 28.86 31.403 20.58 47.171 62.14 151.03 93.54 256.035 28.09 93.917 51.72 189.352 64.55 251.222z"/><path fill="url(#8424330dea0a4ca888d8d9f21edb5cf8-O)" d="m814.552 1084.54-17.64-608.015c351.718-54.654 522.968 39.269 565.658 69.355 14.03 9.888 21.14 13.704 28.86 31.403 20.58 47.171 62.14 151.03 93.54 256.035 28.09 93.917 51.72 189.352 64.55 251.222z"/><path fill="url(#8424330dea0a4ca888d8d9f21edb5cf8-P)" d="m814.552 1084.54-17.64-608.015c351.718-54.654 522.968 39.269 565.658 69.355 14.03 9.888 21.14 13.704 28.86 31.403 20.58 47.171 62.14 151.03 93.54 256.035 28.09 93.917 51.72 189.352 64.55 251.222z"/><path fill="url(#8424330dea0a4ca888d8d9f21edb5cf8-Q)" d="M796.913 476.525c351.717-54.655 522.967 39.268 565.657 69.354 14.03 9.889 21.14 13.705 28.86 31.404 20.58 47.172 62.14 151.031 93.54 256.036 28.09 93.916 51.72 189.351 64.55 251.221h-2.59c-12.92-61.91-36.33-156.242-64.09-249.083-31.41-105.005-72.97-208.864-93.54-256.036-7.73-17.699-14.84-21.515-28.87-31.404-42.6-30.023-213.23-123.618-563.465-69.692z"/><path fill="url(#8424330dea0a4ca888d8d9f21edb5cf8-R)" d="M796.913 476.525c351.717-54.655 522.967 39.268 565.657 69.354 14.03 9.889 21.14 13.705 28.86 31.404 20.58 47.172 62.14 151.031 93.54 256.036 28.09 93.916 51.72 189.351 64.55 251.221h-2.59c-12.92-61.91-36.33-156.242-64.09-249.083-31.41-105.005-72.97-208.864-93.54-256.036-7.73-17.699-14.84-21.515-28.87-31.404-42.6-30.023-213.23-123.618-563.465-69.692z"/><path fill="url(#8424330dea0a4ca888d8d9f21edb5cf8-S)" d="M796.913 476.525c351.717-54.654 522.967 39.269 565.657 69.354 14.03 9.889 21.14 13.705 28.86 31.404 20.58 47.172 62.14 151.031 93.54 256.036 28.09 93.916 51.72 189.351 64.55 251.221h-1.36c-12.81-61.76-36.39-157.021-64.43-250.768-31.35-104.815-72.83-208.488-93.37-255.574-7.71-17.667-14.81-21.476-28.81-31.347-42.61-30.031-213.55-123.779-564.606-69.234z"/><circle cx="910.498" cy="737.906" r=".802" fill="#fff"/><circle cx="1101.32" cy="944.766" r=".802" fill="#fff"/><circle cx="1033.44" cy="990.735" r=".802" fill="#fff"/><circle cx="921.055" cy="717.082" r=".802" fill="#fff"/><circle cx="977.447" cy="745.857" r=".535" fill="#fff"/><circle cx="1068.85" cy="1031.29" r=".535" fill="#fff"/><circle cx="990.944" cy="734.967" r=".535" fill="#fff"/><circle cx="916.779" cy="753.808" r=".535" fill="#fff"/><circle cx="873.483" cy="760.356" r=".535" fill="#fff"/><circle cx="844.218" cy="737.639" r=".535" fill="#fff"/><circle cx="847.959" cy="767.439" r=".535" fill="#fff"/><circle cx="868.805" cy="785.078" r=".535" fill="#fff"/><circle cx="952.592" cy="767.439" r=".535" fill="#fff"/><circle cx="907.692" cy="767.439" r=".535" fill="#fff"/><circle cx="907.692" cy="786.147" r=".535" fill="#fff"/><circle cx="909.964" cy="782.673" r=".535" fill="#fff"/><circle cx="1010.19" cy="796.57" r=".535" fill="#fff"/><circle cx="1059.63" cy="795.501" r=".535" fill="#fff"/><circle cx="1060.7" cy="804.321" r=".535" fill="#fff"/><circle cx="1133.93" cy="797.639" r=".535" fill="#fff"/><circle cx="1136.33" cy="822.762" r=".535" fill="#fff"/><circle cx="1083.68" cy="885.301" r=".535" fill="#fff"/><circle cx="1151.57" cy="809.666" r="1.069" fill="#fff"/><circle cx="852.903" cy="745.056" r=".802" fill="#fff"/><circle cx="822.703" cy="794.165" r=".802" fill="#fff"/><circle cx="953.928" cy="843.875" r=".802" fill="#fff"/><path fill="url(#8424330dea0a4ca888d8d9f21edb5cf8-T)" d="M34.685 837.261c-2.272-12.428-1.875-17.253 4.143-24.522 50.78-61.336 156.748-154.877 196.703-189.755S358.739 517.416 365.955 511.67s16.703-2.405 23.919 5.746c5.773 6.521 20.49 21.426 27.127 28.063 47.974 50.512 118.53 104.632 180.268 148.196S766.187 797.21 885.91 838.396c94.546 32.525 170.41 46.754 185.2 49.528l.61.116c13.17 2.472 11.96 15.033 9.42 20.379-2.54 5.345-35.81 56.392-44.76 69.755-7.16 10.69-49.579 73.136-69.891 103.026H146.801c-26.993-44.1-39.956-67.88-63.207-115.855-23.252-47.973-46.637-115.657-48.909-128.084"/><path fill="url(#8424330dea0a4ca888d8d9f21edb5cf8-U)" d="M34.685 837.261c-2.272-12.428-1.875-17.253 4.143-24.522 50.78-61.336 156.748-154.877 196.703-189.755S358.739 517.416 365.955 511.67s16.703-2.405 23.919 5.746c5.773 6.521 20.49 21.426 27.127 28.063 47.974 50.512 118.53 104.632 180.268 148.196S766.187 797.21 885.91 838.396c94.546 32.525 170.41 46.754 185.2 49.528l.61.116c13.17 2.472 11.96 15.033 9.42 20.379-2.54 5.345-35.81 56.392-44.76 69.755-7.16 10.69-49.579 73.136-69.891 103.026H146.801c-26.993-44.1-39.956-67.88-63.207-115.855-23.252-47.973-46.637-115.657-48.909-128.084"/><path fill="url(#8424330dea0a4ca888d8d9f21edb5cf8-V)" d="M34.685 837.261c-2.272-12.428-1.875-17.253 4.143-24.522 50.78-61.336 156.748-154.877 196.703-189.755S358.739 517.416 365.955 511.67s16.703-2.405 23.919 5.746c5.773 6.521 20.49 21.426 27.127 28.063 47.974 50.512 118.53 104.632 180.268 148.196S766.187 797.21 885.91 838.396c94.546 32.525 170.41 46.754 185.2 49.528l.61.116c13.17 2.472 11.96 15.033 9.42 20.379-2.54 5.345-35.81 56.392-44.76 69.755-7.16 10.69-49.579 73.136-69.891 103.026H146.801c-26.993-44.1-39.956-67.88-63.207-115.855-23.252-47.973-46.637-115.657-48.909-128.084"/><path fill="url(#8424330dea0a4ca888d8d9f21edb5cf8-W)" d="M34.685 837.261c-2.272-12.428-1.875-17.253 4.143-24.522 50.78-61.336 156.748-154.877 196.703-189.755S358.739 517.416 365.955 511.67s16.703-2.405 23.919 5.746c5.773 6.521 20.49 21.426 27.127 28.063 47.974 50.512 118.53 104.632 180.268 148.196S766.187 797.21 885.91 838.396c94.546 32.525 170.41 46.754 185.2 49.528l.61.116c13.17 2.472 11.96 15.033 9.42 20.379-2.54 5.345-35.81 56.392-44.76 69.755-7.16 10.69-49.579 73.136-69.891 103.026H146.801c-26.993-44.1-39.956-67.88-63.207-115.855-23.252-47.973-46.637-115.657-48.909-128.084"/><path fill="url(#8424330dea0a4ca888d8d9f21edb5cf8-X)" d="M34.685 837.261c-2.272-12.428-1.875-17.253 4.143-24.522 50.78-61.336 156.748-154.877 196.703-189.755S358.739 517.416 365.955 511.67s16.703-2.405 23.919 5.746c5.773 6.521 20.49 21.426 27.127 28.063 47.974 50.512 118.53 104.632 180.268 148.196S766.187 797.21 885.91 838.396c94.546 32.525 170.41 46.754 185.2 49.528l.61.116c13.17 2.472 11.96 15.033 9.42 20.379-2.54 5.345-35.81 56.392-44.76 69.755-7.16 10.69-49.579 73.136-69.891 103.026H146.801c-26.993-44.1-39.956-67.88-63.207-115.855-23.252-47.973-46.637-115.657-48.909-128.084"/><path fill="url(#8424330dea0a4ca888d8d9f21edb5cf8-Y)" d="M365.954 511.67c6.295-5.012 14.317-3.109 21.052 2.868-6.284-4.696-13.391-5.836-19.083-1.303-7.197 5.731-90.219 76.227-130.065 111.008-39.846 34.782-145.617 128.932-196.257 190.1-2.774 3.641-6.248 8.051-3.184 22.607 2.266 12.394 25.587 79.891 48.775 127.733 23.188 47.837 36.114 71.567 63.033 115.537l-3.424.98c-26.994-44.1-39.956-67.88-63.207-115.855-23.252-47.974-46.637-115.657-48.91-128.085-2.638-12.059-1.874-17.253 4.143-24.521 50.78-61.336 156.749-154.878 196.704-189.755S358.738 517.416 365.954 511.67"/><ellipse cx="123.337" cy="827.7" fill="#F7FEFF" rx="1.014" ry="1.19" transform="rotate(3.292 123.337 827.7)"/><ellipse cx="202.981" cy="722.934" fill="#F7FEFF" rx="1.014" ry="1.19" transform="rotate(3.292 202.981 722.934)"/><ellipse cx="182.241" cy="717.321" fill="#F7FEFF" rx="1.014" ry="1.19" transform="rotate(3.292 182.241 717.321)"/><ellipse cx="216.45" cy="675.361" fill="#F7FEFF" rx="1.014" ry="1.19" transform="rotate(3.292 216.45 675.361)"/><ellipse cx="231.951" cy="652.377" fill="#F7FEFF" rx="1.014" ry="1.19" transform="rotate(3.292 231.951 652.377)"/><ellipse cx="227.408" cy="692.466" fill="#F7FEFF" rx="1.014" ry="1.19" transform="rotate(3.292 227.408 692.466)"/><ellipse cx="81.177" cy="827.583" fill="#F7FEFF" rx="1.014" ry="1.19" transform="rotate(3.292 81.177 827.583)"/><ellipse cx="125.473" cy="874.128" fill="#F7FEFF" rx="1.014" ry=".747" transform="rotate(3.292 125.473 874.128)"/><ellipse cx="111.308" cy="889.362" fill="#F7FEFF" rx="1.014" ry=".747" transform="rotate(49.228 111.308 889.362)"/><ellipse cx="77.633" cy="889.642" fill="#F7FEFF" rx="1.014" ry=".747" transform="rotate(49.228 77.633 889.642)"/><ellipse cx="66.007" cy="904.074" fill="#F7FEFF" rx="1.014" ry=".747" transform="rotate(49.228 66.007 904.074)"/><ellipse cx="71.356" cy="888.514" fill="#F7FEFF" rx=".814" ry=".747" transform="rotate(49.228 71.356 888.514)"/><ellipse cx="257.018" cy="667.49" fill="#F7FEFF" rx=".814" ry=".747" transform="rotate(49.228 257.018 667.49)"/><ellipse cx="265.852" cy="653.481" fill="#F7FEFF" rx=".814" ry=".747" transform="rotate(49.228 265.852 653.481)"/><ellipse cx="269.559" cy="663.102" fill="#F7FEFF" rx=".814" ry=".747" transform="rotate(49.228 269.559 663.102)"/><ellipse cx="150.197" cy="829.933" fill="#F7FEFF" rx=".814" ry=".747" transform="rotate(49.228 150.197 829.933)"/><ellipse cx="145.119" cy="954.744" fill="#F7FEFF" rx=".814" ry=".747" transform="rotate(49.228 145.119 954.744)"/><ellipse cx="159.284" cy="841.559" fill="#F7FEFF" rx=".814" ry=".747" transform="rotate(49.228 159.284 841.559)"/><ellipse cx="183.338" cy="806.281" fill="#F7FEFF" rx=".814" ry=".747" transform="rotate(49.228 183.338 806.281)"/><ellipse cx="208.059" cy="797.595" fill="#F7FEFF" rx=".814" ry=".747" transform="rotate(49.228 208.059 797.595)"/><ellipse cx="212.051" cy="865.234" fill="#F7FEFF" rx="1.196" ry=".747" transform="rotate(49.228 212.051 865.234)"/><ellipse cx="223.142" cy="843.685" fill="#F9FEFF" rx="1.196" ry=".747" transform="rotate(49.228 223.142 843.685)"/><ellipse cx="112.751" cy="974.375" fill="#F9FEFF" rx="1.196" ry=".747" transform="rotate(49.228 112.751 974.375)"/><ellipse cx="129.285" cy="987.203" fill="#F9FEFF" rx="1.196" ry=".747" transform="rotate(49.228 129.285 987.203)"/><ellipse cx="279.753" cy="879.23" fill="#fff" rx="1.196" ry=".747" transform="rotate(49.228 279.753 879.23)"/><ellipse cx="296.323" cy="924.397" fill="#fff" rx="1.196" ry=".747" transform="rotate(49.228 296.323 924.397)"/><ellipse cx="315.298" cy="712.841" fill="#fff" rx="1.196" ry=".747" transform="rotate(49.228 315.298 712.841)"/><ellipse cx="271.742" cy="913.672" fill="#fff" rx=".798" ry=".747" transform="rotate(49.228 271.742 913.672)"/><ellipse cx="270.611" cy="932.648" fill="#fff" rx=".798" ry=".747" transform="rotate(49.228 270.611 932.648)"/><ellipse cx="342.771" cy="970.064" fill="#fff" rx=".798" ry=".747" transform="rotate(49.228 342.771 970.064)"/><ellipse cx="264.731" cy="766.144" fill="#fff" rx=".798" ry=".747" transform="rotate(49.228 264.731 766.144)"/><ellipse cx="341.168" cy="599.107" fill="#fff" rx=".798" ry=".747" transform="rotate(49.228 341.168 599.107)"/><ellipse cx="317.732" cy="754.919" fill="#fff" rx=".798" ry=".747" transform="rotate(49.228 317.732 754.919)"/><ellipse cx="278.361" cy="685.966" fill="#fff" rx=".798" ry=".747" transform="rotate(49.228 278.361 685.966)"/><ellipse cx="338.495" cy="1004.01" fill="#fff" rx=".798" ry=".747" transform="rotate(49.228 338.495 1004.01)"/><ellipse cx="462.771" cy="926.882" fill="#fff" rx=".798" ry=".747" transform="rotate(49.228 462.771 926.882)"/><ellipse cx="551.769" cy="942.918" fill="#fff" rx=".798" ry=".747" transform="rotate(49.228 551.769 942.918)"/><ellipse cx="526.914" cy="985.412" fill="#fff" rx=".798" ry=".747" transform="rotate(49.228 526.914 985.412)"/><ellipse cx="504.464" cy="1026.57" fill="#fff" rx=".798" ry=".747" transform="rotate(49.228 504.464 1026.57)"/><ellipse cx="472.927" cy="1026.45" fill="#fff" rx=".798" ry=".747" transform="rotate(49.228 472.927 1026.45)"/><ellipse cx="524.741" cy="1053.71" fill="#fff" rx=".798" ry=".747" transform="rotate(49.228 524.741 1053.71)"/><ellipse cx="488.126" cy="1070.02" fill="#fff" rx=".798" ry=".747" transform="rotate(49.228 488.126 1070.02)"/><ellipse cx="576.589" cy="1039.02" fill="#fff" rx=".798" ry=".747" transform="rotate(49.228 576.589 1039.02)"/><ellipse cx="562.157" cy="1013.36" fill="#fff" rx=".798" ry=".747" transform="rotate(49.228 562.157 1013.36)"/><ellipse cx="529.087" cy="837.768" fill="#fff" rx=".798" ry=".747" transform="rotate(49.228 529.087 837.768)"/><ellipse cx="529.042" cy="798.481" fill="#fff" rx=".798" ry=".747" transform="rotate(49.228 529.042 798.481)"/><ellipse cx="490.299" cy="921.912" fill="#fff" rx=".798" ry=".747" transform="rotate(49.228 490.299 921.912)"/><ellipse cx="418.673" cy="945.102" fill="#fff" rx=".798" ry=".747" transform="rotate(49.228 418.673 945.102)"/><ellipse cx="399.698" cy="926.999" fill="#fff" rx=".798" ry=".747" transform="rotate(49.228 399.698 926.999)"/><path fill="url(#8424330dea0a4ca888d8d9f21edb5cf8-Z)" d="M80.888 767.906c-12.31 13.195-36.783 41.797-40.59 46.203l-.302.356c-1.52 1.844-2.995 4.351-3.695 8.125-.701 3.784-.84 7.404.785 14.403l.255 1.07c2.551 10.492 7.227 25.755 10 33.19l.539 1.43 4.865 12.839c5.524 14.537 12.343 32.346 14.304 36.987l.827 1.942c5.18 12.063 25.396 58.127 37.034 79.529 12.438 22.87 35.869 65.19 43.728 76.11l-.434.31-.433.31c-7.91-10.99-31.383-53.39-43.801-76.22-11.664-21.45-31.897-67.559-37.078-79.623l-.829-1.942c-2.625-6.214-13.885-35.838-19.183-49.862l-.539-1.432c-2.777-7.446-7.473-22.76-10.04-33.319l-.257-1.077c-1.648-7.098-1.53-10.872-.794-14.839.737-3.976 2.301-6.647 3.921-8.612l.305-.359c3.837-4.441 29.125-32.348 41.412-45.519"/><path fill="url(#8424330dea0a4ca888d8d9f21edb5cf8-aa)" d="M546.89 12.294c.107-5.131 3.608-11.938 5.345-14.7l480.805.252c14.3 82.45 48.64 174.938 70.15 222.377 13.49 29.739 8.56 37.951-2.54 55.055-115.453 183.475-180.263 423.876-181.867 431.359s-2.672 19.777-20.846 5.88-153.141-115.323-257.105-316.971C536.73 193.631 546.756 18.708 546.89 12.294"/><path fill="url(#8424330dea0a4ca888d8d9f21edb5cf8-ab)" d="M546.89 12.294c.107-5.131 3.608-11.938 5.345-14.7l480.805.252c14.3 82.45 48.64 174.938 70.15 222.377 13.49 29.739 8.56 37.951-2.54 55.055-115.453 183.475-180.263 423.876-181.867 431.359s-2.672 19.777-20.846 5.88-153.141-115.323-257.105-316.971C536.73 193.631 546.756 18.708 546.89 12.294"/><path fill="url(#8424330dea0a4ca888d8d9f21edb5cf8-ac)" d="M546.89 12.294c.107-5.131 3.608-11.938 5.345-14.7l480.805.252c14.3 82.45 48.64 174.938 70.15 222.377 13.49 29.739 8.56 37.951-2.54 55.055-115.453 183.475-180.263 423.876-181.867 431.359s-2.672 19.777-20.846 5.88-153.141-115.323-257.105-316.971C536.73 193.631 546.756 18.708 546.89 12.294"/><path fill="url(#8424330dea0a4ca888d8d9f21edb5cf8-ad)" d="M546.89 12.294c.107-5.131 3.608-11.938 5.345-14.7l480.805.252c14.3 82.45 48.64 174.938 70.15 222.377 13.49 29.739 8.56 37.951-2.54 55.055-115.453 183.475-180.263 423.876-181.867 431.359s-2.672 19.777-20.846 5.88-153.141-115.323-257.105-316.971C536.73 193.631 546.756 18.708 546.89 12.294"/><path fill="url(#8424330dea0a4ca888d8d9f21edb5cf8-ae)" d="M546.89 12.294c.107-5.131 3.608-11.938 5.345-14.7l480.805.252c14.3 82.45 48.64 174.938 70.15 222.377 13.49 29.739 8.56 37.951-2.54 55.055-115.453 183.475-180.263 423.876-181.867 431.359s-2.672 19.777-20.846 5.88-153.141-115.323-257.105-316.971C536.73 193.631 546.756 18.708 546.89 12.294"/><path fill="url(#8424330dea0a4ca888d8d9f21edb5cf8-af)" d="M1033.04-2.154c14.3 82.45 48.64 174.938 70.15 222.377 13.49 29.739 8.56 37.951-2.54 55.055-115.452 183.474-180.263 423.874-181.867 431.359-1.262 5.891-2.192 14.76-11.397 11.49 3.395-1.928 4.111-7.42 4.983-11.49 1.604-7.485 71.492-244.276 183.341-431.359 11.09-17.104 15.86-25.666 2.37-55.405-21.51-47.439-55.85-139.927-70.15-222.377z"/><path fill="url(#8424330dea0a4ca888d8d9f21edb5cf8-ag)" d="M1032.76-2.294c1.55 10.552 7.22 40.581 17.47 76.029l1.19 4.103c12.21 41.885 21.15 67.422 30.71 91.071l2.84 6.99c6.31 15.504 11.78 29.925 12.58 31.595l-2.88-5.579c-1.73-3.675-5.36-9.698-11.68-25.21l-2.84-6.995c-9.59-23.731-18.56-49.337-30.78-91.272l-1.19-4.11c-10.28-35.537-15.97-65.66-17.54-76.31z"/><ellipse cx="1047.5" cy="171.414" fill="#fff" rx=".702" ry="1.303"/><ellipse cx="798.148" cy="101.125" fill="#fff" rx=".702" ry="1.303"/><ellipse cx="861.756" cy="12.929" fill="#fff" rx=".702" ry="1.303"/><ellipse cx="741.489" cy="93.374" fill="#fff" rx=".702" ry="1.303"/><ellipse cx="674.941" cy="174.621" fill="#fff" rx=".702" ry="1.303"/><ellipse cx="605.186" cy="213.909" fill="#fff" rx=".702" ry="1.303"/><ellipse cx="637.792" cy="231.815" fill="#fff" rx=".702" ry="1.303"/><ellipse cx="697.658" cy="292.483" fill="#fff" rx=".702" ry="1.303"/><ellipse cx="1006.08" cy="227.539" fill="#fff" rx=".702" ry="1.303"/><ellipse cx="1064.61" cy="307.45" fill="#fff" rx=".702" ry="1.303"/><ellipse cx="984.429" cy="249.722" fill="#fff" rx=".702" ry="1.303"/><ellipse cx="1052.85" cy="174.621" fill="#fff" rx=".702" ry="1.303"/><ellipse cx="980.888" cy="161.693" fill="#fff" rx=".504" ry=".935"/><ellipse cx="1077.37" cy="284.098" fill="#fff" rx=".504" ry=".935"/><ellipse cx="1018.57" cy="79.243" fill="#fff" rx=".504" ry=".935"/><ellipse cx="1035.41" cy="43.029" fill="#fff" rx=".504" ry=".935"/><ellipse cx="990.509" cy="58.864" fill="#fff" rx=".504" ry=".601"/><ellipse cx="915.676" cy="52.984" fill="#fff" rx=".504" ry=".601"/><ellipse cx="923.427" cy="136.102" fill="#fff" rx=".504" ry=".601"/><ellipse cx="844.585" cy="72.227" fill="#fff" rx=".504" ry=".601"/><ellipse cx="787.124" cy="88.263" fill="#fff" rx=".504" ry=".601"/><ellipse cx="792.202" cy="109.109" fill="#fff" rx=".504" ry=".601"/><ellipse cx="759.062" cy="250.323" fill="#fff" rx=".504" ry=".601"/><ellipse cx="899.908" cy="199.978" fill="#fff" rx=".504" ry=".601"/></g><defs><radialGradient id="8424330dea0a4ca888d8d9f21edb5cf8-c" cx="0" cy="0" r="1" gradientTransform="matrix(954.65445 6.41491 -8.12276 1208.8127 19.72 594.454)" gradientUnits="userSpaceOnUse"><stop offset=".367" stop-color="#E9E6F2"/><stop offset="1" stop-color="#EBE8F3" stop-opacity="0"/></radialGradient><radialGradient id="8424330dea0a4ca888d8d9f21edb5cf8-d" cx="0" cy="0" r="1" gradientTransform="matrix(42.75925 674.56615 -854.15272 54.14285 631.212 5.346)" gradientUnits="userSpaceOnUse"><stop offset=".367" stop-color="#EBF2F7"/><stop offset="1" stop-color="#EBF2F7" stop-opacity="0"/></radialGradient><radialGradient id="8424330dea0a4ca888d8d9f21edb5cf8-e" cx="0" cy="0" r="1" gradientTransform="rotate(2.392 -15825.837 19756.086)scale(409.8 518.9)" gradientUnits="userSpaceOnUse"><stop offset=".421" stop-color="#F9F8FA"/><stop offset="1" stop-color="#F9F8FA" stop-opacity="0"/></radialGradient><radialGradient id="8424330dea0a4ca888d8d9f21edb5cf8-f" cx="0" cy="0" r="1" gradientTransform="matrix(255.50142 69.48764 -87.98683 323.52172 408.85 648.909)" gradientUnits="userSpaceOnUse"><stop stop-color="#F9F8FA"/><stop offset="1" stop-color="#F9F8FA" stop-opacity="0"/></radialGradient><radialGradient id="8424330dea0a4ca888d8d9f21edb5cf8-g" cx="0" cy="0" r="1" gradientTransform="rotate(68.199 223.06 800.545)scale(328.147 415.508)" gradientUnits="userSpaceOnUse"><stop offset=".421" stop-color="#F6F4F8"/><stop offset="1" stop-color="#F9F8FA" stop-opacity="0"/></radialGradient><radialGradient id="8424330dea0a4ca888d8d9f21edb5cf8-h" cx="0" cy="0" r="1" gradientTransform="matrix(35.27839 352.78347 -446.70403 44.67046 1249.12 528.107)" gradientUnits="userSpaceOnUse"><stop offset=".219" stop-color="#F3F0F7"/><stop offset="1" stop-color="#F3F0F7" stop-opacity="0"/></radialGradient><radialGradient id="8424330dea0a4ca888d8d9f21edb5cf8-i" cx="0" cy="0" r="1" gradientTransform="rotate(179.841 65.564 302.63)scale(385.926 411.538)" gradientUnits="userSpaceOnUse"><stop offset=".083" stop-color="#ECE9F3"/><stop offset="1" stop-color="#F0F0F6" stop-opacity="0"/></radialGradient><radialGradient id="8424330dea0a4ca888d8d9f21edb5cf8-j" cx="0" cy="0" r="1" gradientTransform="rotate(-137.021 261.537 519.34)scale(192.881 205.682)" gradientUnits="userSpaceOnUse"><stop offset=".083" stop-color="#F0F0F6"/><stop offset="1" stop-color="#F0F0F6" stop-opacity="0"/></radialGradient><radialGradient id="8424330dea0a4ca888d8d9f21edb5cf8-s" cx="0" cy="0" r="1" gradientTransform="rotate(-125.202 405.988 125.916)scale(143.259 23.0756)" gradientUnits="userSpaceOnUse"><stop offset=".304" stop-color="#F6F5F8"/><stop offset=".77" stop-color="#F6F5F8" stop-opacity="0"/></radialGradient><radialGradient id="8424330dea0a4ca888d8d9f21edb5cf8-t" cx="0" cy="0" r="1" gradientTransform="matrix(70.55703 89.79995 -21.77804 17.1113 359.674 441.514)" gradientUnits="userSpaceOnUse"><stop offset=".179" stop-color="#EFEFF6"/><stop offset=".547" stop-color="#EFEFF6" stop-opacity="0"/></radialGradient><radialGradient id="8424330dea0a4ca888d8d9f21edb5cf8-u" cx="0" cy="0" r="1" gradientTransform="matrix(52.9176 66.28066 -16.07425 12.83347 437.18 407.305)" gradientUnits="userSpaceOnUse"><stop offset=".179" stop-color="#EEF0F6"/><stop offset=".835" stop-color="#EEF0F6" stop-opacity="0"/></radialGradient><radialGradient id="8424330dea0a4ca888d8d9f21edb5cf8-x" cx="0" cy="0" r="1" gradientTransform="matrix(33.6745 37.14953 -10.67244 9.67412 443.597 398.76)" gradientUnits="userSpaceOnUse"><stop offset=".622" stop-color="#EEF1F6"/><stop offset="1" stop-color="#EEF1F6" stop-opacity="0"/></radialGradient><radialGradient id="8424330dea0a4ca888d8d9f21edb5cf8-y" cx="0" cy="0" r="1" gradientTransform="matrix(34.20936 37.95096 -12.78046 11.52042 508.271 488.552)" gradientUnits="userSpaceOnUse"><stop offset=".502" stop-color="#F4F4F8"/><stop offset="1" stop-color="#F4F4F8" stop-opacity="0"/></radialGradient><radialGradient id="8424330dea0a4ca888d8d9f21edb5cf8-z" cx="0" cy="0" r="1" gradientTransform="matrix(58.53032 83.91997 -20.6494 14.40201 486.622 317.505)" gradientUnits="userSpaceOnUse"><stop offset=".299" stop-color="#ECF0F6"/><stop offset="1" stop-color="#ECF0F6" stop-opacity="0"/></radialGradient><radialGradient id="8424330dea0a4ca888d8d9f21edb5cf8-A" cx="0" cy="0" r="1" gradientTransform="rotate(53.931 -138.983 597.683)scale(53.5642 42.2028)" gradientUnits="userSpaceOnUse"><stop offset=".299" stop-color="#ECF0F6"/><stop offset=".897" stop-color="#ECF0F6" stop-opacity="0"/></radialGradient><radialGradient id="8424330dea0a4ca888d8d9f21edb5cf8-D" cx="0" cy="0" r="1" gradientTransform="matrix(-74.83333 -89.26512 28.41911 -23.8245 623.193 365.612)" gradientUnits="userSpaceOnUse"><stop offset=".299" stop-color="#F5F5F8"/><stop offset="1" stop-color="#F5F5F8" stop-opacity="0"/></radialGradient><radialGradient id="8424330dea0a4ca888d8d9f21edb5cf8-E" cx="0" cy="0" r="1" gradientTransform="matrix(-62.53964 -75.0997 15.12075 -12.59187 584.707 428.151)" gradientUnits="userSpaceOnUse"><stop offset=".478" stop-color="#F5F5F9"/><stop offset="1" stop-color="#F5F5F8" stop-opacity="0"/></radialGradient><radialGradient id="8424330dea0a4ca888d8d9f21edb5cf8-G" cx="0" cy="0" r="1" gradientTransform="rotate(92.51 602.431 579.162)scale(195.288 440.591)" gradientUnits="userSpaceOnUse"><stop offset=".005" stop-color="#EBEEF6"/><stop offset=".896" stop-color="#EBEEF6" stop-opacity="0"/></radialGradient><radialGradient id="8424330dea0a4ca888d8d9f21edb5cf8-M" cx="0" cy="0" r="1" gradientTransform="rotate(29.794 -1212.767 2396.568)scale(466.879 461.36)" gradientUnits="userSpaceOnUse"><stop offset=".274" stop-color="#F3EDF6"/><stop offset="1" stop-color="#FAFBFB" stop-opacity="0"/></radialGradient><radialGradient id="8424330dea0a4ca888d8d9f21edb5cf8-N" cx="0" cy="0" r="1" gradientTransform="matrix(173.71991 120.80145 -119.37302 171.66575 1424.434 943.956)" gradientUnits="userSpaceOnUse"><stop offset=".274" stop-color="#F8F6FA"/><stop offset="1" stop-color="#F8F6FA" stop-opacity="0"/></radialGradient><radialGradient id="8424330dea0a4ca888d8d9f21edb5cf8-O" cx="0" cy="0" r="1" gradientTransform="matrix(-281.15814 34.74605 -34.3353 -277.83443 1042.26 666.013)" gradientUnits="userSpaceOnUse"><stop offset=".274" stop-color="#EFEEF7"/><stop offset="1" stop-color="#F2F2F8" stop-opacity="0"/></radialGradient><radialGradient id="8424330dea0a4ca888d8d9f21edb5cf8-P" cx="0" cy="0" r="1" gradientTransform="matrix(-51.84869 68.95315 -151.68897 -114.06113 1397.18 571.938)" gradientUnits="userSpaceOnUse"><stop offset=".498" stop-color="#FCFAFA"/><stop offset="1" stop-color="#FCFAFA" stop-opacity="0"/></radialGradient><radialGradient id="8424330dea0a4ca888d8d9f21edb5cf8-R" cx="0" cy="0" r="1" gradientTransform="matrix(179.59921 281.69291 -339.3248 216.34362 1381.14 570.334)" gradientUnits="userSpaceOnUse"><stop stop-color="#fff"/><stop offset="1" stop-color="#fff" stop-opacity="0"/></radialGradient><radialGradient id="8424330dea0a4ca888d8d9f21edb5cf8-U" cx="0" cy="0" r="1" gradientTransform="matrix(88.19585 225.0331 -167.57727 65.67754 339.362 575.145)" gradientUnits="userSpaceOnUse"><stop offset=".194" stop-color="#EBEDF7"/><stop offset=".834" stop-color="#EBEDF7" stop-opacity="0"/></radialGradient><radialGradient id="8424330dea0a4ca888d8d9f21edb5cf8-V" cx="0" cy="0" r="1" gradientTransform="matrix(-578.35206 -231.98028 76.78287 -191.42803 894.195 674.566)" gradientUnits="userSpaceOnUse"><stop offset=".74" stop-color="#FFEDEB"/><stop offset=".783" stop-color="#FFEDEB" stop-opacity="0"/></radialGradient><radialGradient id="8424330dea0a4ca888d8d9f21edb5cf8-W" cx="0" cy="0" r="1" gradientTransform="rotate(-142.643 365.226 191.162)scale(295.547 91.2194)" gradientUnits="userSpaceOnUse"><stop offset=".718" stop-color="#D9DFEE"/><stop offset=".798" stop-color="#D9DFEE" stop-opacity="0"/></radialGradient><radialGradient id="8424330dea0a4ca888d8d9f21edb5cf8-ab" cx="0" cy="0" r="1" gradientTransform="rotate(120.138 369.208 520.027)scale(241.666 189.24)" gradientUnits="userSpaceOnUse"><stop offset=".294" stop-color="#F2FEFF"/><stop offset=".903" stop-color="#F2FEFF" stop-opacity="0"/></radialGradient><radialGradient id="8424330dea0a4ca888d8d9f21edb5cf8-ac" cx="0" cy="0" r="1" gradientTransform="matrix(3.7442 358.12943 -280.43767 2.93195 623.192 350.109)" gradientUnits="userSpaceOnUse"><stop offset=".159" stop-color="#F9F3F7"/><stop offset=".903" stop-color="#F9F3F7" stop-opacity="0"/></radialGradient><radialGradient id="8424330dea0a4ca888d8d9f21edb5cf8-ad" cx="0" cy="0" r="1" gradientTransform="matrix(254.43206 734.43258 -459.07422 159.0387 982.391 176.926)" gradientUnits="userSpaceOnUse"><stop offset=".805" stop-color="#E9EDF6" stop-opacity="0"/><stop offset=".822" stop-color="#E9EDF6"/></radialGradient><radialGradient id="8424330dea0a4ca888d8d9f21edb5cf8-ae" cx="0" cy="0" r="1" gradientTransform="rotate(64.482 343.287 878.582)scale(811.455 502.16)" gradientUnits="userSpaceOnUse"><stop offset=".795" stop-color="#FEF1EF" stop-opacity="0"/><stop offset=".822" stop-color="#FEF1EF"/></radialGradient><linearGradient id="8424330dea0a4ca888d8d9f21edb5cf8-b" x1="960" x2="904.886" y1="0" y2="653.185" gradientUnits="userSpaceOnUse"><stop offset=".093" stop-color="#EAEAF3"/><stop offset=".397" stop-color="#F5F2F5"/><stop offset=".777" stop-color="#FCF9F7"/><stop offset=".967" stop-color="#FBF8F6"/></linearGradient><linearGradient id="8424330dea0a4ca888d8d9f21edb5cf8-k" x1="112.191" x2="31.478" y1="682.049" y2="741.915" gradientUnits="userSpaceOnUse"><stop offset=".03" stop-color="#ECE9F3"/><stop offset=".285" stop-color="#F6EFEF"/><stop offset=".722" stop-color="#F6EFEF"/><stop offset=".903" stop-color="#ECEAF3"/></linearGradient><linearGradient id="8424330dea0a4ca888d8d9f21edb5cf8-l" x1="155.487" x2="-15.56" y1="820.49" y2="593.853" gradientUnits="userSpaceOnUse"><stop offset=".699" stop-color="#ECEAF3" stop-opacity="0"/><stop offset=".925" stop-color="#ECEAF3"/></linearGradient><linearGradient id="8424330dea0a4ca888d8d9f21edb5cf8-m" x1="169.385" x2="76.705" y1="574.076" y2="651.998" gradientUnits="userSpaceOnUse"><stop offset=".306" stop-color="#ECE9F3"/><stop offset=".517" stop-color="#F6EFEF"/><stop offset=".639" stop-color="#F6EFEF"/><stop offset=".811" stop-color="#ECE9F3"/></linearGradient><linearGradient id="8424330dea0a4ca888d8d9f21edb5cf8-n" x1="309.429" x2="-15.357" y1="734.967" y2="537.431" gradientUnits="userSpaceOnUse"><stop offset=".622" stop-color="#ECEAF3" stop-opacity="0"/><stop offset=".899" stop-color="#ECEAF3"/></linearGradient><linearGradient id="8424330dea0a4ca888d8d9f21edb5cf8-o" x1="144.262" x2="65.498" y1="412.65" y2="484.263" gradientUnits="userSpaceOnUse"><stop offset=".331" stop-color="#ECEBF4"/><stop offset=".55" stop-color="#F6EFEF"/><stop offset=".648" stop-color="#F6EFEF"/><stop offset=".904" stop-color="#ECEAF3"/></linearGradient><linearGradient id="8424330dea0a4ca888d8d9f21edb5cf8-p" x1="195.455" x2="15.27" y1="535.101" y2="462.403" gradientUnits="userSpaceOnUse"><stop offset=".062" stop-color="#EEE9F4"/><stop offset=".352" stop-color="#EEE9F4" stop-opacity=".172"/><stop offset=".655" stop-color="#EEE9F4" stop-opacity="0"/><stop offset=".873" stop-color="#ECEAF4"/></linearGradient><linearGradient id="8424330dea0a4ca888d8d9f21edb5cf8-q" x1="503.995" x2="401.743" y1="451.136" y2="532.07" gradientUnits="userSpaceOnUse"><stop offset=".239" stop-color="#F2F2F8"/><stop offset=".403" stop-color="#F7F5F7"/><stop offset=".637" stop-color="#F7F5F7"/><stop offset=".79" stop-color="#F3F3F8"/></linearGradient><linearGradient id="8424330dea0a4ca888d8d9f21edb5cf8-r" x1="531.79" x2="372.164" y1="612.561" y2="381.071" gradientUnits="userSpaceOnUse"><stop offset=".103" stop-color="#F7F6F9"/><stop offset=".352" stop-color="#F7F6F9" stop-opacity="0"/><stop offset=".872" stop-color="#EBEEF5" stop-opacity="0"/><stop offset=".985" stop-color="#EDEFF6"/></linearGradient><linearGradient id="8424330dea0a4ca888d8d9f21edb5cf8-v" x1="572.313" x2="463.906" y1="377.495" y2="453.751" gradientUnits="userSpaceOnUse"><stop offset=".385" stop-color="#F3F4F8"/><stop offset=".506" stop-color="#F7F5F7"/><stop offset=".706" stop-color="#F7F5F7"/><stop offset=".814" stop-color="#F2F3F8"/></linearGradient><linearGradient id="8424330dea0a4ca888d8d9f21edb5cf8-w" x1="599.65" x2="430.821" y1="545.167" y2="313.335" gradientUnits="userSpaceOnUse"><stop offset=".075" stop-color="#F7F7F9"/><stop offset=".351" stop-color="#F7F7F9" stop-opacity="0"/><stop offset=".853" stop-color="#EBF0F6" stop-opacity="0"/><stop offset=".985" stop-color="#EBF0F6"/></linearGradient><linearGradient id="8424330dea0a4ca888d8d9f21edb5cf8-B" x1="633.349" x2="511.943" y1="299.065" y2="381.316" gradientUnits="userSpaceOnUse"><stop offset=".402" stop-color="#EDF3F7"/><stop offset=".506" stop-color="#F7F5F7"/><stop offset=".706" stop-color="#F7F5F7"/><stop offset=".838" stop-color="#EBF1F7"/></linearGradient><linearGradient id="8424330dea0a4ca888d8d9f21edb5cf8-C" x1="653.88" x2="486.854" y1="473.098" y2="240.178" gradientUnits="userSpaceOnUse"><stop offset=".075" stop-color="#F7F6F9"/><stop offset=".217" stop-color="#F7F6F9" stop-opacity="0"/><stop offset=".858" stop-color="#EBF0F6" stop-opacity="0"/><stop offset=".96" stop-color="#EBF2F7"/></linearGradient><linearGradient id="8424330dea0a4ca888d8d9f21edb5cf8-F" x1="1756.91" x2="1579.45" y1="-.668" y2="432.695" gradientUnits="userSpaceOnUse"><stop stop-color="#DEE2F0"/><stop offset=".164" stop-color="#E8EBF4"/><stop offset=".349" stop-color="#EBECF4"/><stop offset=".569" stop-color="#F7F2F4"/><stop offset=".724" stop-color="#F6F1F4"/><stop offset=".853" stop-color="#EEEDF6"/><stop offset=".938" stop-color="#EEEDF6"/><stop offset="1" stop-color="#EFF0F7"/></linearGradient><linearGradient id="8424330dea0a4ca888d8d9f21edb5cf8-H" x1="1756.91" x2="1196.52" y1="-.668" y2="336.633" gradientUnits="userSpaceOnUse"><stop offset=".045" stop-color="#D2E4F6"/><stop offset=".551" stop-color="#EBECF4"/><stop offset=".881" stop-color="#E0ECFA"/><stop offset=".988" stop-color="#EAECF6"/></linearGradient><linearGradient id="8424330dea0a4ca888d8d9f21edb5cf8-I" x1="1188.18" x2="1921.55" y1="341.559" y2="198.307" gradientUnits="userSpaceOnUse"><stop offset=".515" stop-color="#EBF7F7"/><stop offset=".822" stop-color="#DFEBFA"/><stop offset=".989" stop-color="#D4E7FE"/></linearGradient><linearGradient id="8424330dea0a4ca888d8d9f21edb5cf8-J" x1="1145.82" x2="1180.97" y1="0" y2="244.811" gradientUnits="userSpaceOnUse"><stop stop-color="#fff"/><stop offset="1" stop-color="#fff" stop-opacity="0"/></linearGradient><linearGradient id="8424330dea0a4ca888d8d9f21edb5cf8-K" x1="1388.89" x2="1930.63" y1="236.392" y2="236.392" gradientUnits="userSpaceOnUse"><stop stop-color="#EEEDF6"/><stop offset="1" stop-color="#fff"/></linearGradient><linearGradient id="8424330dea0a4ca888d8d9f21edb5cf8-L" x1="804.396" x2="1478.43" y1="720.534" y2="699.154" gradientUnits="userSpaceOnUse"><stop stop-color="#EBEAF5"/><stop offset=".003" stop-color="#F5F5FA"/><stop offset=".063" stop-color="#F5F5FA"/><stop offset=".39" stop-color="#EEEDF7"/><stop offset=".482" stop-color="#EFECF6"/><stop offset=".686" stop-color="#F4F1F7"/><stop offset=".954" stop-color="#FAFFFF"/></linearGradient><linearGradient id="8424330dea0a4ca888d8d9f21edb5cf8-Q" x1="1318.6" x2="786.222" y1="569.265" y2="427.617" gradientUnits="userSpaceOnUse"><stop stop-color="#FAF6F6"/><stop offset=".659" stop-color="#EAE8F4"/></linearGradient><linearGradient id="8424330dea0a4ca888d8d9f21edb5cf8-S" x1="1113.35" x2="1207.96" y1="1084.54" y2="476.258" gradientUnits="userSpaceOnUse"><stop stop-color="#FAFAFB"/><stop offset=".309" stop-color="#F4F1F7"/><stop offset=".659" stop-color="#F2FAFC"/></linearGradient><linearGradient id="8424330dea0a4ca888d8d9f21edb5cf8-T" x1="43.237" x2="1082.76" y1="815.679" y2="905.479" gradientUnits="userSpaceOnUse"><stop stop-color="#E5F5FC"/><stop offset=".223" stop-color="#EFF0F7"/><stop offset=".301" stop-color="#F4F1F8"/><stop offset=".413" stop-color="#F4F4FA"/><stop offset=".641" stop-color="#F7F7FB"/><stop offset="1" stop-color="#FCF8F7"/></linearGradient><linearGradient id="8424330dea0a4ca888d8d9f21edb5cf8-X" x1="1035.84" x2="1028.63" y1="983.519" y2="978.708" gradientUnits="userSpaceOnUse"><stop offset=".517" stop-color="#F8FDFD"/><stop offset="1" stop-color="#FBF8F8" stop-opacity="0"/></linearGradient><linearGradient id="8424330dea0a4ca888d8d9f21edb5cf8-Y" x1="43.237" x2="400.298" y1="815.679" y2="508.792" gradientUnits="userSpaceOnUse"><stop offset=".046" stop-color="#F5FDFF"/><stop offset=".697" stop-color="#F3F7FC"/><stop offset="1" stop-color="#F1FBFA"/></linearGradient><linearGradient id="8424330dea0a4ca888d8d9f21edb5cf8-Z" x1="40.03" x2="122.347" y1="804.454" y2="1086.68" gradientUnits="userSpaceOnUse"><stop stop-color="#E2EEFA"/><stop offset="1" stop-color="#E1EEFB"/></linearGradient><linearGradient id="8424330dea0a4ca888d8d9f21edb5cf8-aa" x1="828.961" x2="828.961" y1="-2.405" y2="718.833" gradientUnits="userSpaceOnUse"><stop stop-color="#E5ECF7"/><stop offset=".409" stop-color="#F4F4F9"/><stop offset=".903" stop-color="#FAFFFC"/></linearGradient><linearGradient id="8424330dea0a4ca888d8d9f21edb5cf8-af" x1="1124.04" x2="828.961" y1="-11.759" y2="718.833" gradientUnits="userSpaceOnUse"><stop stop-color="#C9DDFE"/><stop offset=".445" stop-color="#F0F5FC"/><stop offset=".904" stop-color="#FFFEFB"/></linearGradient><linearGradient id="8424330dea0a4ca888d8d9f21edb5cf8-ag" x1="1063.73" x2="1063.73" y1="-2.294" y2="205.28" gradientUnits="userSpaceOnUse"><stop stop-color="#F4F4FF"/><stop offset="1" stop-color="#DAEBFF"/></linearGradient><clipPath id="8424330dea0a4ca888d8d9f21edb5cf8-a"><path fill="#fff" d="M0 0h1920v1080H0z"/></clipPath></defs></svg>