<svg xmlns="http://www.w3.org/2000/svg" width="48" height="48" viewBox="0 0 48 48"><defs><style>.a{fill:none;}.b{fill:#404040;}</style></defs><rect class="a" width="48" height="48"/><path class="b" d="M40,32.578V40H32V36H28V32H24V28.766A10.689,10.689,0,0,1,19,30a10.9,10.9,0,0,1-5.547-1.5,11.106,11.106,0,0,1-2.219-1.719A11.373,11.373,0,0,1,9.5,24.547a10.4,10.4,0,0,1-1.109-2.625A11.616,11.616,0,0,1,8,19a10.9,10.9,0,0,1,1.5-5.547,11.106,11.106,0,0,1,1.719-2.219A11.373,11.373,0,0,1,13.453,9.5a10.4,10.4,0,0,1,2.625-1.109A11.616,11.616,0,0,1,19,8a10.9,10.9,0,0,1,5.547,1.5,11.106,11.106,0,0,1,2.219,1.719A11.373,11.373,0,0,1,28.5,13.453a10.4,10.4,0,0,1,1.109,2.625A11.616,11.616,0,0,1,30,19a10.015,10.015,0,0,1-.125,1.578,10.879,10.879,0,0,1-.359,1.531Zm-2,.844L27.219,22.641a14.716,14.716,0,0,0,.562-1.782A7.751,7.751,0,0,0,28,19a8.786,8.786,0,0,0-.7-3.5,8.9,8.9,0,0,0-1.938-2.859A9.269,9.269,0,0,0,22.5,10.719,8.9,8.9,0,0,0,19,10a8.786,8.786,0,0,0-3.5.7,8.9,8.9,0,0,0-2.859,1.938A9.269,9.269,0,0,0,10.719,15.5,8.9,8.9,0,0,0,10,19a8.786,8.786,0,0,0,.7,3.5,8.9,8.9,0,0,0,1.938,2.859A9.269,9.269,0,0,0,15.5,27.281a8.842,8.842,0,0,0,6.469.2A8.767,8.767,0,0,0,24.609,26H26v4h4v4h4v4h4ZM16,14a1.938,1.938,0,0,1,.781.156,2,2,0,0,1,.625.422,2.191,2.191,0,0,1,.438.641A1.705,1.705,0,0,1,18,16a1.938,1.938,0,0,1-.156.781,2,2,0,0,1-.422.625,2.191,2.191,0,0,1-.641.438A1.705,1.705,0,0,1,16,18a1.938,1.938,0,0,1-.781-.156,2,2,0,0,1-.625-.422,2.191,2.191,0,0,1-.438-.641A1.705,1.705,0,0,1,14,16a1.938,1.938,0,0,1,.156-.781,2,2,0,0,1,.422-.625,2.191,2.191,0,0,1,.641-.438A1.705,1.705,0,0,1,16,14Z"/></svg>